<svg xmlns="http://www.w3.org/2000/svg" width="24" height="24" fill="none" stroke="currentColor" stroke-linecap="round" stroke-linejoin="round" stroke-width="1.8" data-attribution="cc0-icons" viewBox="0 0 24 24">
  <path d="M8 3.5V4a1 1 0 0 0 1 1h6a1 1 0 0 0 1-1v-.5m-8 0V3a1 1 0 0 1 1-1h6a1 1 0 0 1 1 1v.5m-8 0h-.778A2.229 2.229 0 0 0 5 5.73v14.048C5 21.005 5.995 22 7.222 22h9.556A2.222 2.222 0 0 0 19 19.778V5.73a2.23 2.23 0 0 0-2.222-2.23H16M10.5 18H8m8 0h-2.5m-3-3H8m8 0h-2.5m2.5-3h-2.5m-3 0H8"/>
</svg>
