<svg xmlns="http://www.w3.org/2000/svg" width="24" height="24" fill="none" stroke="currentColor" stroke-linecap="round" stroke-linejoin="round" stroke-width="1.8" data-attribution="cc0-icons" viewBox="0 0 24 24">
  <g clip-path="url(#a)">
    <path d="M13.688 2.866c1.267-1.718 3.988-.576 3.649 1.531-.216 1.34.995 2.537 2.315 2.338 2.11-.319 3.228 2.412 1.498 3.664-1.099.795-1.088 2.497-.016 3.289 1.718 1.267.576 3.988-1.531 3.649-1.34-.216-2.537.995-2.338 2.315.319 2.11-2.412 3.228-3.665 1.498-.794-1.099-2.496-1.088-3.288-.016-1.267 1.718-3.988.576-3.649-1.531.216-1.34-.996-2.537-2.315-2.338-2.11.319-3.228-2.412-1.498-3.665 1.099-.794 1.089-2.496.016-3.288-1.718-1.267-.576-3.988 1.531-3.649 1.34.216 2.537-.996 2.338-2.315-.319-2.11 2.412-3.228 3.664-1.498a2.036 2.036 0 0 0 3.289.016Z"/>
    <path d="M15.25 12a3.25 3.25 0 1 1-6.5 0 3.25 3.25 0 0 1 6.5 0Z"/>
  </g>
  <defs>
    <clipPath id="a">
      <path fill="#fff" d="M0 0h24v24H0z"/>
    </clipPath>
  </defs>
</svg>
